<svg width="185" height="51" viewBox="0 0 185 51" fill="none" xmlns="http://www.w3.org/2000/svg">
<path d="M7.50639 44.7654C17.104 43.7198 26.4211 42.7082 35.7382 41.6965C35.7382 41.7646 35.7382 41.8326 35.7467 41.9006C27.9003 43.1757 20.0539 44.4594 12.2075 45.743C11.5189 45.8535 10.8133 45.9641 10.1417 46.1681C7.31937 47.0012 4.54804 47.7493 2.10825 45.1735C1.6747 44.7144 0.8416 44.6379 0 44.3149C1.98924 32.2264 3.97847 20.104 5.99321 7.83703C8.24598 7.94754 10.3202 8.04956 12.454 8.15157C12.607 7.34397 12.709 6.65539 12.862 5.98381C13.7291 2.24337 17.1295 -0.323938 20.7085 0.033104C24.8485 0.449654 27.6198 3.44201 27.7983 7.47999C27.8918 9.66475 28.2914 11.8325 28.4529 14.0088C28.4869 14.4933 28.2149 15.0969 27.8833 15.4624C27.7048 15.658 26.8972 15.5985 26.7187 15.3774C26.4211 14.9949 26.2171 14.3743 26.2851 13.8983C26.4806 12.5806 26.8462 11.2884 27.1947 9.76676H13.3466C13.6271 11.2034 13.9417 12.4361 14.0947 13.6942C14.1627 14.2383 14.0437 14.9184 13.7461 15.3519C13.5931 15.5729 12.5645 15.5474 12.4285 15.3264C12.1564 14.8844 12.0969 14.2128 12.1649 13.6602C12.318 12.4446 12.607 11.2459 12.8365 10.0728C9.60614 9.12918 9.2321 9.36721 9.08758 12.1725C8.56052 22.2547 8.03345 32.3369 7.51489 42.4276C7.47239 43.2437 7.51489 44.0598 7.51489 44.7569L7.50639 44.7654ZM13.6186 8.33859C18.0901 8.72964 22.3747 9.11218 26.6252 9.48623C27.4328 6.51937 26.5657 3.95207 24.2959 2.19236C22.1961 0.568667 19.2293 0.347641 16.9425 1.73331C14.5792 3.16148 13.3466 5.21872 13.6271 8.34709L13.6186 8.33859ZM4.44603 45.7175C4.70106 45.624 4.95609 45.5305 5.21112 45.437C5.94221 33.034 6.66479 20.6396 7.39588 8.23658C5.75518 9.40122 1.03712 42.3426 2.09125 44.2043C2.74583 40.9995 3.31539 38.1941 3.88496 35.3973C3.97847 38.1006 3.74895 40.7614 3.68944 43.4308C3.67244 44.1873 4.1825 44.9524 4.45453 45.7175H4.44603Z" fill="#F9F9F9"/>
<path d="M5.52555 50.9626C5.37253 49.6959 5.29603 48.8798 6.63918 48.5483C18.9912 45.5474 31.5131 43.6602 44.2051 42.8441C31.0966 44.2893 18.2771 47.1796 5.52555 50.9626Z" fill="#F9F9F9"/>
<path d="M179.953 34.2814C178.822 34.2814 177.848 34.0524 177.032 33.5942C176.221 33.1313 175.596 32.4774 175.157 31.6327C174.718 30.7832 174.498 29.7786 174.498 28.6188C174.498 27.4878 174.718 26.4951 175.157 25.6408C175.596 24.7865 176.214 24.1207 177.011 23.6435C177.813 23.1662 178.753 22.9276 179.831 22.9276C180.557 22.9276 181.232 23.0445 181.857 23.2784C182.487 23.5075 183.036 23.8535 183.504 24.3164C183.976 24.7793 184.344 25.3616 184.606 26.0632C184.869 26.7599 185 27.576 185 28.5115V29.349H175.715V27.4591H182.129C182.129 27.02 182.034 26.6311 181.843 26.2922C181.652 25.9534 181.387 25.6885 181.048 25.4976C180.714 25.3019 180.325 25.2041 179.881 25.2041C179.419 25.2041 179.008 25.3115 178.65 25.5262C178.297 25.7362 178.02 26.0202 177.82 26.3781C177.619 26.7313 177.517 27.125 177.512 27.5593V29.3562C177.512 29.9003 177.612 30.3704 177.813 30.7665C178.018 31.1626 178.307 31.468 178.679 31.6828C179.051 31.8976 179.492 32.0049 180.003 32.0049C180.342 32.0049 180.652 31.9572 180.934 31.8618C181.215 31.7663 181.456 31.6231 181.657 31.4322C181.857 31.2413 182.01 31.0075 182.115 30.7307L184.936 30.9168C184.792 31.5945 184.499 32.1863 184.055 32.6922C183.616 33.1933 183.048 33.5846 182.351 33.8662C181.659 34.143 180.86 34.2814 179.953 34.2814Z" fill="#F9F9F9"/>
<path d="M173.073 23.0707V25.3615H166.452V23.0707H173.073ZM167.955 20.4363H171.005V30.6876C171.005 30.9692 171.047 31.1888 171.133 31.3463C171.219 31.499 171.339 31.6064 171.491 31.6684C171.649 31.7304 171.83 31.7615 172.035 31.7615C172.179 31.7615 172.322 31.7495 172.465 31.7257C172.608 31.697 172.718 31.6756 172.794 31.6612L173.274 33.9306C173.121 33.9783 172.906 34.0332 172.63 34.0952C172.353 34.162 172.016 34.2026 171.62 34.2169C170.885 34.2456 170.241 34.1477 169.687 33.9234C169.138 33.6991 168.711 33.3507 168.406 32.8782C168.1 32.4058 167.95 31.8092 167.955 31.0885V20.4363Z" fill="#F9F9F9"/>
<path d="M161.732 34.0667V23.0709H164.782V34.0667H161.732ZM163.264 21.6534C162.811 21.6534 162.422 21.5031 162.097 21.2024C161.778 20.897 161.618 20.5319 161.618 20.1071C161.618 19.6871 161.778 19.3268 162.097 19.0262C162.422 18.7207 162.811 18.568 163.264 18.568C163.718 18.568 164.104 18.7207 164.424 19.0262C164.748 19.3268 164.911 19.6871 164.911 20.1071C164.911 20.5319 164.748 20.897 164.424 21.2024C164.104 21.5031 163.718 21.6534 163.264 21.6534Z" fill="#F9F9F9"/>
<path d="M156.533 23.6223C156.476 23.0448 156.23 22.5962 155.796 22.2764C155.362 21.9567 154.772 21.7968 154.028 21.7968C153.522 21.7968 153.095 21.8684 152.746 22.0116C152.398 22.15 152.131 22.3433 151.944 22.5914C151.763 22.8396 151.672 23.1212 151.672 23.4362C151.663 23.6986 151.718 23.9277 151.837 24.1234C151.961 24.3191 152.131 24.4885 152.345 24.6317C152.56 24.7701 152.808 24.8918 153.09 24.9968C153.371 25.097 153.672 25.1829 153.992 25.2545L155.309 25.5695C155.949 25.7127 156.536 25.9036 157.07 26.1422C157.605 26.3808 158.068 26.6743 158.459 27.0227C158.85 27.3711 159.153 27.7815 159.368 28.254C159.588 28.7265 159.7 29.2682 159.705 29.8791C159.7 30.7763 159.471 31.5542 159.017 32.2128C158.569 32.8667 157.92 33.3749 157.07 33.7376C156.225 34.0956 155.206 34.2745 154.013 34.2745C152.83 34.2745 151.799 34.0932 150.921 33.7305C150.047 33.3678 149.365 32.8309 148.873 32.1198C148.386 31.4039 148.131 30.5186 148.107 29.4639H151.107C151.14 29.9554 151.281 30.3659 151.529 30.6952C151.782 31.0197 152.119 31.2655 152.539 31.4325C152.963 31.5948 153.443 31.6759 153.978 31.6759C154.502 31.6759 154.958 31.5996 155.345 31.4468C155.736 31.2941 156.039 31.0817 156.254 30.8097C156.469 30.5377 156.576 30.2251 156.576 29.8719C156.576 29.5426 156.478 29.2658 156.283 29.0415C156.092 28.8172 155.81 28.6263 155.438 28.4688C155.07 28.3113 154.619 28.1681 154.085 28.0393L152.488 27.6384C151.252 27.3377 150.276 26.8676 149.561 26.2281C148.845 25.5886 148.489 24.7271 148.494 23.6438C148.489 22.7561 148.725 21.9805 149.203 21.3172C149.685 20.6538 150.346 20.136 151.186 19.7637C152.026 19.3915 152.98 19.2053 154.049 19.2053C155.137 19.2053 156.087 19.3915 156.898 19.7637C157.714 20.136 158.349 20.6538 158.803 21.3172C159.256 21.9805 159.49 22.7489 159.504 23.6223H156.533Z" fill="#F9F9F9"/>
<path d="M136.82 34.2814C135.689 34.2814 134.715 34.0524 133.899 33.5942C133.088 33.1313 132.462 32.4774 132.023 31.6327C131.584 30.7832 131.365 29.7786 131.365 28.6188C131.365 27.4878 131.584 26.4951 132.023 25.6408C132.462 24.7865 133.08 24.1207 133.877 23.6435C134.679 23.1662 135.619 22.9276 136.698 22.9276C137.423 22.9276 138.099 23.0445 138.724 23.2784C139.354 23.5075 139.903 23.8535 140.37 24.3164C140.843 24.7793 141.21 25.3616 141.473 26.0632C141.735 26.7599 141.867 27.576 141.867 28.5115V29.349H132.582V27.4591H138.996C138.996 27.02 138.9 26.6311 138.71 26.2922C138.519 25.9534 138.254 25.6885 137.915 25.4976C137.581 25.3019 137.192 25.2041 136.748 25.2041C136.285 25.2041 135.875 25.3115 135.517 25.5262C135.164 25.7362 134.887 26.0202 134.686 26.3781C134.486 26.7313 134.383 27.125 134.378 27.5593V29.3562C134.378 29.9003 134.479 30.3704 134.679 30.7665C134.884 31.1626 135.173 31.468 135.545 31.6828C135.918 31.8976 136.359 32.0049 136.87 32.0049C137.209 32.0049 137.519 31.9572 137.8 31.8618C138.082 31.7663 138.323 31.6231 138.523 31.4322C138.724 31.2413 138.877 31.0075 138.982 30.7307L141.802 30.9168C141.659 31.5945 141.365 32.1863 140.922 32.6922C140.483 33.1933 139.915 33.5846 139.218 33.8662C138.526 34.143 137.726 34.2814 136.82 34.2814Z" fill="#F9F9F9"/>
<path d="M124.945 34.2814C123.819 34.2814 122.85 34.0428 122.039 33.5656C121.232 33.0835 120.612 32.4154 120.177 31.5611C119.748 30.7068 119.533 29.7237 119.533 28.6117C119.533 27.4854 119.75 26.4975 120.184 25.6479C120.623 24.7937 121.246 24.1279 122.053 23.6506C122.859 23.1686 123.819 22.9276 124.931 22.9276C125.89 22.9276 126.73 23.1018 127.451 23.4502C128.171 23.7986 128.742 24.2878 129.162 24.9178C129.581 25.5477 129.813 26.2875 129.856 27.137H126.978C126.897 26.5881 126.682 26.1467 126.334 25.8126C125.99 25.4737 125.539 25.3043 124.981 25.3043C124.508 25.3043 124.095 25.4332 123.742 25.6909C123.394 25.9438 123.122 26.3137 122.926 26.8005C122.731 27.2873 122.633 27.8767 122.633 28.5687C122.633 29.2703 122.728 29.8669 122.919 30.3584C123.115 30.85 123.389 31.2246 123.742 31.4823C124.095 31.7401 124.508 31.8689 124.981 31.8689C125.329 31.8689 125.642 31.7973 125.919 31.6542C126.2 31.511 126.432 31.3034 126.613 31.0313C126.799 30.7545 126.921 30.4229 126.978 30.0363H129.856C129.808 30.8762 129.579 31.616 129.169 32.2555C128.763 32.8902 128.202 33.3866 127.486 33.7445C126.77 34.1025 125.923 34.2814 124.945 34.2814Z" fill="#F9F9F9"/>
<path d="M112.24 34.0667V23.0708H115.197V24.9894H115.311C115.512 24.3069 115.848 23.7915 116.32 23.4431C116.793 23.0899 117.337 22.9133 117.953 22.9133C118.105 22.9133 118.27 22.9229 118.447 22.942C118.623 22.9611 118.778 22.9873 118.912 23.0207V25.7267C118.769 25.6838 118.571 25.6456 118.318 25.6122C118.065 25.5788 117.833 25.5621 117.623 25.5621C117.175 25.5621 116.774 25.6599 116.421 25.8556C116.072 26.0465 115.796 26.3137 115.59 26.6574C115.39 27.001 115.29 27.3971 115.29 27.8457V34.0667H112.24Z" fill="#F9F9F9"/>
<path d="M105.203 34.2814C104.072 34.2814 103.098 34.0524 102.282 33.5942C101.471 33.1313 100.846 32.4774 100.407 31.6327C99.9675 30.7832 99.7479 29.7786 99.7479 28.6188C99.7479 27.4878 99.9675 26.4951 100.407 25.6408C100.846 24.7865 101.464 24.1207 102.261 23.6435C103.062 23.1662 104.003 22.9276 105.081 22.9276C105.807 22.9276 106.482 23.0445 107.107 23.2784C107.737 23.5075 108.286 23.8535 108.754 24.3164C109.226 24.7793 109.594 25.3616 109.856 26.0632C110.119 26.7599 110.25 27.576 110.25 28.5115V29.349H100.965V27.4591H107.379C107.379 27.02 107.284 26.6311 107.093 26.2922C106.902 25.9534 106.637 25.6885 106.298 25.4976C105.964 25.3019 105.575 25.2041 105.131 25.2041C104.668 25.2041 104.258 25.3115 103.9 25.5262C103.547 25.7362 103.27 26.0202 103.07 26.3781C102.869 26.7313 102.767 27.125 102.762 27.5593V29.3562C102.762 29.9003 102.862 30.3704 103.062 30.7665C103.268 31.1626 103.556 31.468 103.929 31.6828C104.301 31.8976 104.742 32.0049 105.253 32.0049C105.592 32.0049 105.902 31.9572 106.184 31.8618C106.465 31.7663 106.706 31.6231 106.907 31.4322C107.107 31.2413 107.26 31.0075 107.365 30.7307L110.185 30.9168C110.042 31.5945 109.749 32.1863 109.305 32.6922C108.866 33.1933 108.298 33.5846 107.601 33.8662C106.909 34.143 106.11 34.2814 105.203 34.2814Z" fill="#F9F9F9"/>
<path d="M81.8044 34.0667V23.0708H84.7109V25.0108H84.8398C85.0688 24.3665 85.4506 23.8583 85.9852 23.486C86.5197 23.1137 87.1592 22.9276 87.9037 22.9276C88.6578 22.9276 89.2997 23.1161 89.8294 23.4932C90.3592 23.8654 90.7123 24.3713 90.8889 25.0108H91.0035C91.2278 24.3808 91.6334 23.8773 92.2205 23.5003C92.8122 23.1185 93.5114 22.9276 94.318 22.9276C95.3441 22.9276 96.1769 23.2545 96.8164 23.9084C97.4607 24.5574 97.7828 25.4785 97.7828 26.6717V34.0667H94.7403V27.273C94.7403 26.6621 94.5781 26.2039 94.2535 25.8985C93.929 25.5931 93.5234 25.4403 93.0366 25.4403C92.4829 25.4403 92.051 25.6169 91.7408 25.9701C91.4306 26.3185 91.2755 26.779 91.2755 27.3517V34.0667H88.3189V27.2086C88.3189 26.6693 88.1638 26.2397 87.8536 25.92C87.5482 25.6002 87.1449 25.4403 86.6438 25.4403C86.3049 25.4403 85.9995 25.5262 85.7275 25.6981C85.4602 25.8651 85.2478 26.1013 85.0903 26.4068C84.9328 26.7074 84.8541 27.0606 84.8541 27.4663V34.0667H81.8044Z" fill="#F9F9F9"/>
<path d="M63.4171 34.0667V23.0708H66.3236V25.0108H66.4524C66.6815 24.3665 67.0633 23.8583 67.5978 23.486C68.1324 23.1137 68.7719 22.9276 69.5164 22.9276C70.2704 22.9276 70.9124 23.1161 71.4421 23.4932C71.9719 23.8654 72.325 24.3713 72.5016 25.0108H72.6161C72.8405 24.3808 73.2461 23.8773 73.8331 23.5003C74.4249 23.1185 75.1241 22.9276 75.9307 22.9276C76.9568 22.9276 77.7896 23.2545 78.4291 23.9084C79.0734 24.5574 79.3955 25.4785 79.3955 26.6717V34.0667H76.353V27.273C76.353 26.6621 76.1908 26.2039 75.8662 25.8985C75.5417 25.5931 75.136 25.4403 74.6492 25.4403C74.0956 25.4403 73.6637 25.6169 73.3535 25.9701C73.0433 26.3185 72.8882 26.779 72.8882 27.3517V34.0667H69.9316V27.2086C69.9316 26.6693 69.7765 26.2397 69.4663 25.92C69.1608 25.6002 68.7576 25.4403 68.2564 25.4403C67.9176 25.4403 67.6122 25.5262 67.3401 25.6981C67.0729 25.8651 66.8605 26.1013 66.703 26.4068C66.5455 26.7074 66.4668 27.0606 66.4668 27.4663V34.0667H63.4171Z" fill="#F9F9F9"/>
<path d="M56.022 34.2814C54.91 34.2814 53.9484 34.0452 53.137 33.5727C52.3305 33.0955 51.7077 32.4321 51.2686 31.5826C50.8295 30.7283 50.61 29.738 50.61 28.6117C50.61 27.4758 50.8295 26.4831 51.2686 25.6336C51.7077 24.7793 52.3305 24.116 53.137 23.6435C53.9484 23.1662 54.91 22.9276 56.022 22.9276C57.134 22.9276 58.0933 23.1662 58.8999 23.6435C59.7112 24.116 60.3364 24.7793 60.7754 25.6336C61.2145 26.4831 61.4341 27.4758 61.4341 28.6117C61.4341 29.738 61.2145 30.7283 60.7754 31.5826C60.3364 32.4321 59.7112 33.0955 58.8999 33.5727C58.0933 34.0452 57.134 34.2814 56.022 34.2814ZM56.0363 31.919C56.5422 31.919 56.9646 31.7759 57.3034 31.4895C57.6423 31.1984 57.8976 30.8023 58.0694 30.3012C58.246 29.8 58.3343 29.2297 58.3343 28.5902C58.3343 27.9507 58.246 27.3804 58.0694 26.8793C57.8976 26.3781 57.6423 25.982 57.3034 25.6909C56.9646 25.3998 56.5422 25.2542 56.0363 25.2542C55.5257 25.2542 55.0962 25.3998 54.7478 25.6909C54.4041 25.982 54.144 26.3781 53.9675 26.8793C53.7956 27.3804 53.7097 27.9507 53.7097 28.5902C53.7097 29.2297 53.7956 29.8 53.9675 30.3012C54.144 30.8023 54.4041 31.1984 54.7478 31.4895C55.0962 31.7759 55.5257 31.919 56.0363 31.919Z" fill="#F9F9F9"/>
<path d="M44.1905 34.2814C43.0642 34.2814 42.0953 34.0428 41.284 33.5656C40.4775 33.0835 39.857 32.4154 39.4227 31.5611C38.9932 30.7068 38.7784 29.7237 38.7784 28.6117C38.7784 27.4854 38.9956 26.4975 39.4299 25.6479C39.869 24.7937 40.4918 24.1279 41.2983 23.6506C42.1049 23.1686 43.0642 22.9276 44.1762 22.9276C45.1354 22.9276 45.9754 23.1018 46.6961 23.4502C47.4167 23.7986 47.987 24.2878 48.407 24.9178C48.827 25.5477 49.0584 26.2875 49.1014 27.137H46.2236C46.1424 26.5881 45.9277 26.1467 45.5793 25.8126C45.2357 25.4737 44.7847 25.3043 44.2263 25.3043C43.7538 25.3043 43.341 25.4332 42.9878 25.6909C42.6394 25.9438 42.3674 26.3137 42.1717 26.8005C41.976 27.2873 41.8782 27.8767 41.8782 28.5687C41.8782 29.2703 41.9736 29.8669 42.1645 30.3584C42.3602 30.85 42.6346 31.2246 42.9878 31.4823C43.341 31.7401 43.7538 31.8689 44.2263 31.8689C44.5747 31.8689 44.8873 31.7973 45.1641 31.6542C45.4457 31.511 45.6771 31.3034 45.8585 31.0313C46.0446 30.7545 46.1663 30.4229 46.2236 30.0363H49.1014C49.0537 30.8762 48.8246 31.616 48.4142 32.2555C48.0085 32.8902 47.4477 33.3866 46.7318 33.7445C46.016 34.1025 45.1688 34.2814 44.1905 34.2814Z" fill="#F9F9F9"/>
<path d="M36.6237 26.8364V29.2561H29.9374V26.8364H36.6237Z" fill="#F9F9F9"/>
<path d="M17.4865 34.0668V19.4056H27.3656V21.9613H20.5862V25.4548H26.8573V28.0105H20.5862V31.5111H27.3942V34.0668H17.4865Z" fill="#F9F9F9"/>
</svg>
