<svg width="25" height="22" viewBox="0 0 25 22" fill="none" xmlns="http://www.w3.org/2000/svg">
<path d="M7.5107 2.08372V5.83527C7.5107 6.1479 7.40128 6.41363 7.18244 6.63247C6.9636 6.85131 6.69787 6.96073 6.38524 6.96073H1.62546C1.31284 6.96073 1.0471 6.85131 0.82826 6.63247C0.60942 6.41363 0.5 6.1479 0.5 5.83527V2.08372C0.5 1.77109 0.60942 1.50536 0.82826 1.28652C1.0471 1.06768 1.31284 0.958256 1.62546 0.958256H6.38524C6.69787 0.958256 6.9636 1.06768 7.18244 1.28652C7.40128 1.50536 7.5107 1.77109 7.5107 2.08372ZM15.9986 13.3384V9.58681C15.9986 9.27419 15.8892 9.00845 15.6703 8.78961C15.4515 8.57077 15.1857 8.46135 14.8731 8.46135H10.1368C9.82416 8.46135 9.55842 8.57077 9.33958 8.78961C9.12074 9.00845 9.01132 9.27419 9.01132 9.58681V13.3384C9.01132 13.651 9.12074 13.9167 9.33958 14.1356C9.55842 14.3544 9.82416 14.4638 10.1368 14.4638H14.8731C15.1857 14.4638 15.4515 14.3544 15.6703 14.1356C15.8892 13.9167 15.9986 13.651 15.9986 13.3384ZM17.4992 2.08372V5.83527C17.4992 6.1479 17.6086 6.41363 17.8275 6.63247C18.0463 6.85131 18.312 6.96073 18.6247 6.96073H23.3844C23.6971 6.96073 23.9628 6.85131 24.1816 6.63247C24.4005 6.41363 24.5099 6.1479 24.5099 5.83527V2.08372C24.5099 1.77109 24.4005 1.50536 24.1816 1.28652C23.9628 1.06768 23.6971 0.958256 23.3844 0.958256H18.6247C18.312 0.958256 18.0463 1.06768 17.8275 1.28652C17.6086 1.50536 17.4992 1.77109 17.4992 2.08372ZM15.9986 5.83527V2.08372C15.9986 1.77109 15.8892 1.50536 15.6703 1.28652C15.4515 1.06768 15.1857 0.958256 14.8731 0.958256H10.1368C9.82416 0.958256 9.55842 1.06768 9.33958 1.28652C9.12074 1.50536 9.01132 1.77109 9.01132 2.08372V5.83527C9.01132 6.1479 9.12074 6.41363 9.33958 6.63247C9.55842 6.85131 9.82416 6.96073 10.1368 6.96073H14.8731C15.1857 6.96073 15.4515 6.85131 15.6703 6.63247C15.8892 6.41363 15.9986 6.1479 15.9986 5.83527ZM6.38524 8.46135H1.62546C1.31284 8.46135 1.0471 8.57077 0.82826 8.78961C0.60942 9.00845 0.5 9.27419 0.5 9.58681V13.3384C0.5 13.651 0.60942 13.9167 0.82826 14.1356C1.0471 14.3544 1.31284 14.4638 1.62546 14.4638H6.38524C6.69787 14.4638 6.9636 14.3544 7.18244 14.1356C7.40128 13.9167 7.5107 13.651 7.5107 13.3384V9.58681C7.5107 9.27419 7.40128 9.00845 7.18244 8.78961C6.9636 8.57077 6.69787 8.46135 6.38524 8.46135ZM0.5 17.0899V20.8415C0.5 21.1541 0.60942 21.4198 0.82826 21.6387C1.0471 21.8575 1.31284 21.9669 1.62546 21.9669H6.38524C6.69787 21.9669 6.9636 21.8575 7.18244 21.6387C7.40128 21.4198 7.5107 21.1541 7.5107 20.8415V17.0899C7.5107 16.7773 7.40128 16.5115 7.18244 16.2927C6.9636 16.0739 6.69787 15.9644 6.38524 15.9644H1.62546C1.31284 15.9644 1.0471 16.0739 0.82826 16.2927C0.60942 16.5115 0.5 16.7773 0.5 17.0899ZM18.6247 14.4638H23.3844C23.6971 14.4638 23.9628 14.3544 24.1816 14.1356C24.4005 13.9167 24.5099 13.651 24.5099 13.3384V9.58681C24.5099 9.27419 24.4005 9.00845 24.1816 8.78961C23.9628 8.57077 23.6971 8.46135 23.3844 8.46135H18.6247C18.312 8.46135 18.0463 8.57077 17.8275 8.78961C17.6086 9.00845 17.4992 9.27419 17.4992 9.58681V13.3384C17.4992 13.651 17.6086 13.9167 17.8275 14.1356C18.0463 14.3544 18.312 14.4638 18.6247 14.4638ZM18.6247 21.9669H23.3844C23.6971 21.9669 23.9628 21.8575 24.1816 21.6387C24.4005 21.4198 24.5099 21.1541 24.5099 20.8415V17.0899C24.5099 16.7773 24.4005 16.5115 24.1816 16.2927C23.9628 16.0739 23.6971 15.9644 23.3844 15.9644H18.6247C18.312 15.9644 18.0463 16.0739 17.8275 16.2927C17.6086 16.5115 17.4992 16.7773 17.4992 17.0899V20.8415C17.4992 21.1541 17.6086 21.4198 17.8275 21.6387C18.0463 21.8575 18.312 21.9669 18.6247 21.9669ZM9.01132 17.0899V20.8415C9.01132 21.1541 9.12074 21.4198 9.33958 21.6387C9.55842 21.8575 9.82416 21.9669 10.1368 21.9669H14.8731C15.1857 21.9669 15.4515 21.8575 15.6703 21.6387C15.8892 21.4198 15.9986 21.1541 15.9986 20.8415V17.0899C15.9986 16.7773 15.8892 16.5115 15.6703 16.2927C15.4515 16.0739 15.1857 15.9644 14.8731 15.9644H10.1368C9.82416 15.9644 9.55842 16.0739 9.33958 16.2927C9.12074 16.5115 9.01132 16.7773 9.01132 17.0899Z" fill="#525CEB"/>
</svg>
