<svg width="25" height="21" viewBox="0 0 25 21" fill="none" xmlns="http://www.w3.org/2000/svg">
<path d="M4.50155 0.70863H1.50031C1.40652 0.70863 1.31273 0.72817 1.21894 0.767248C1.12515 0.806326 1.03918 0.857128 0.961025 0.919655C0.898499 0.997812 0.847697 1.08378 0.808618 1.17757C0.769539 1.27136 0.75 1.36515 0.75 1.45894V4.46018C0.75 4.55397 0.769539 4.64775 0.808618 4.74154C0.847697 4.83533 0.898499 4.9213 0.961025 4.99946C1.03918 5.06199 1.12515 5.11279 1.21894 5.15187C1.31273 5.19095 1.40652 5.21049 1.50031 5.21049H4.50155C4.59534 5.21049 4.68912 5.19095 4.78291 5.15187C4.8767 5.11279 4.96267 5.06199 5.04083 4.99946C5.10336 4.9213 5.15416 4.83533 5.19324 4.74154C5.23232 4.64775 5.25186 4.55397 5.25186 4.46018V1.45894C5.25186 1.36515 5.23232 1.27136 5.19324 1.17757C5.15416 1.08378 5.10336 0.997812 5.04083 0.919655C4.96267 0.857128 4.8767 0.806326 4.78291 0.767248C4.68912 0.72817 4.59534 0.70863 4.50155 0.70863ZM4.50155 8.21172H1.50031C1.40652 8.21172 1.31273 8.23126 1.21894 8.27034C1.12515 8.30942 1.03918 8.36022 0.961025 8.42275C0.898499 8.50091 0.847697 8.58688 0.808618 8.68067C0.769539 8.77446 0.75 8.86825 0.75 8.96203V11.9633C0.75 12.0571 0.769539 12.1508 0.808618 12.2446C0.847697 12.3384 0.898499 12.4244 0.961025 12.5026C1.03918 12.5651 1.12515 12.6159 1.21894 12.655C1.31273 12.694 1.40652 12.7136 1.50031 12.7136H4.50155C4.59534 12.7136 4.68912 12.694 4.78291 12.655C4.8767 12.6159 4.96267 12.5651 5.04083 12.5026C5.10336 12.4244 5.15416 12.3384 5.19324 12.2446C5.23232 12.1508 5.25186 12.0571 5.25186 11.9633V8.96203C5.25186 8.86825 5.23232 8.77446 5.19324 8.68067C5.15416 8.58688 5.10336 8.50091 5.04083 8.42275C4.96267 8.36022 4.8767 8.30942 4.78291 8.27034C4.68912 8.23126 4.59534 8.21172 4.50155 8.21172ZM4.50155 15.7148H1.50031C1.40652 15.7148 1.31273 15.7344 1.21894 15.7734C1.12515 15.8125 1.03918 15.8633 0.961025 15.9258C0.898499 16.004 0.847697 16.09 0.808618 16.1838C0.769539 16.2776 0.75 16.3713 0.75 16.4651V19.4664C0.75 19.5602 0.769539 19.6539 0.808618 19.7477C0.847697 19.8415 0.898499 19.9275 0.961025 20.0057C1.03918 20.0682 1.12515 20.119 1.21894 20.1581C1.31273 20.1971 1.40652 20.2167 1.50031 20.2167H4.50155C4.59534 20.2167 4.68912 20.1971 4.78291 20.1581C4.8767 20.119 4.96267 20.0682 5.04083 20.0057C5.10336 19.9275 5.15416 19.8415 5.19324 19.7477C5.23232 19.6539 5.25186 19.5602 5.25186 19.4664V16.4651C5.25186 16.3713 5.23232 16.2776 5.19324 16.1838C5.15416 16.09 5.10336 16.004 5.04083 15.9258C4.96267 15.8633 4.8767 15.8125 4.78291 15.7734C4.68912 15.7344 4.59534 15.7148 4.50155 15.7148ZM24.0096 9.33719H9.0034C8.90961 9.33719 8.81583 9.35673 8.72204 9.39581C8.62825 9.43489 8.54228 9.48569 8.46412 9.54821C8.40159 9.62637 8.35079 9.71234 8.31171 9.80613C8.27263 9.89992 8.25309 9.99371 8.25309 10.0875V10.8378C8.25309 10.9316 8.27263 11.0254 8.31171 11.1192C8.35079 11.213 8.40159 11.2989 8.46412 11.3771C8.54228 11.4396 8.62825 11.4904 8.72204 11.5295C8.81583 11.5686 8.90961 11.5881 9.0034 11.5881H24.0096C24.1034 11.5881 24.1972 11.5686 24.291 11.5295C24.3847 11.4904 24.4707 11.4396 24.5489 11.3771C24.6114 11.2989 24.6622 11.213 24.7013 11.1192C24.7404 11.0254 24.7599 10.9316 24.7599 10.8378V10.0875C24.7599 9.99371 24.7404 9.89992 24.7013 9.80613C24.6622 9.71234 24.6114 9.62637 24.5489 9.54821C24.4707 9.48569 24.3847 9.43489 24.291 9.39581C24.1972 9.35673 24.1034 9.33719 24.0096 9.33719ZM24.0096 16.8403H9.0034C8.90961 16.8403 8.81583 16.8598 8.72204 16.8989C8.62825 16.938 8.54228 16.9888 8.46412 17.0513C8.40159 17.1295 8.35079 17.2154 8.31171 17.3092C8.27263 17.403 8.25309 17.4968 8.25309 17.5906V18.3409C8.25309 18.4347 8.27263 18.5285 8.31171 18.6223C8.35079 18.7161 8.40159 18.802 8.46412 18.8802C8.54228 18.9427 8.62825 18.9935 8.72204 19.0326C8.81583 19.0717 8.90961 19.0912 9.0034 19.0912H24.0096C24.1034 19.0912 24.1972 19.0717 24.291 19.0326C24.3847 18.9935 24.4707 18.9427 24.5489 18.8802C24.6114 18.802 24.6622 18.7161 24.7013 18.6223C24.7404 18.5285 24.7599 18.4347 24.7599 18.3409V17.5906C24.7599 17.4968 24.7404 17.403 24.7013 17.3092C24.6622 17.2154 24.6114 17.1295 24.5489 17.0513C24.4707 16.9888 24.3847 16.938 24.291 16.8989C24.1972 16.8598 24.1034 16.8403 24.0096 16.8403ZM24.0096 1.8341H9.0034C8.90961 1.8341 8.81583 1.85363 8.72204 1.89271C8.62825 1.93179 8.54228 1.98259 8.46412 2.04512C8.40159 2.12328 8.35079 2.20925 8.31171 2.30304C8.27263 2.39683 8.25309 2.49062 8.25309 2.5844V3.33471C8.25309 3.4285 8.27263 3.52229 8.31171 3.61608C8.35079 3.70987 8.40159 3.79584 8.46412 3.874C8.54228 3.93652 8.62825 3.98733 8.72204 4.02641C8.81583 4.06548 8.90961 4.08502 9.0034 4.08502H24.0096C24.1034 4.08502 24.1972 4.06548 24.291 4.02641C24.3847 3.98733 24.4707 3.93652 24.5489 3.874C24.6114 3.79584 24.6622 3.70987 24.7013 3.61608C24.7404 3.52229 24.7599 3.4285 24.7599 3.33471V2.5844C24.7599 2.49062 24.7404 2.39683 24.7013 2.30304C24.6622 2.20925 24.6114 2.12328 24.5489 2.04512C24.4707 1.98259 24.3847 1.93179 24.291 1.89271C24.1972 1.85363 24.1034 1.8341 24.0096 1.8341Z" fill="#212529"/>
</svg>
